<svg width="850" height="450" viewBox="0 0 850 450" fill="none" xmlns="http://www.w3.org/2000/svg">
<g clip-path="url(#clip0_801_2)">
<rect width="850" height="450" rx="40" fill="white"/>
<g clip-path="url(#clip1_801_2)">
<path d="M1055.9 483.444C1050.97 483.868 1046.01 483.801 1041.09 483.246C987.022 477.273 913.392 478.972 853.37 516.129C770.36 567.509 640.269 523.524 582.883 499.594C539.036 481.317 516.274 436.552 529.946 394.533C530.139 393.94 530.337 393.347 530.545 392.754C539.149 367.783 556.131 348.24 577.162 337.881C595.492 328.852 622.254 309.998 634.163 273.771C639.082 258.812 645.83 244.739 654.594 232.473C678.063 199.622 727.193 150.7 811.689 151.005C826.503 151.076 841.207 153.563 855.22 158.367C886.089 168.875 913.969 190.24 935.23 219.859C948.795 238.75 969.125 256.311 998.23 257.743C1038.62 259.741 1077.17 278.531 1106.09 311.97C1106.92 312.931 1107.75 313.898 1108.57 314.876C1160.06 376.16 1124.29 477.471 1055.9 483.444Z" fill="#6C63FF"/>
<path d="M634.606 328.981C636.113 328.981 637.333 327.761 637.333 326.256C637.333 324.751 636.113 323.531 634.606 323.531C633.1 323.531 631.879 324.751 631.879 326.256C631.879 327.761 633.1 328.981 634.606 328.981Z" fill="white"/>
<path d="M682.731 239.76C684.237 239.76 685.458 238.54 685.458 237.035C685.458 235.531 684.237 234.311 682.731 234.311C681.225 234.311 680.004 235.531 680.004 237.035C680.004 238.54 681.225 239.76 682.731 239.76Z" fill="white"/>
<path d="M607.78 421.39H605.352V418.965H604.363V421.39H601.935V422.379H604.363V424.799H605.352V422.379H607.78V421.39Z" fill="white"/>
<path d="M668.737 420.322H666.31V417.896H665.32V420.322H662.893V421.31H665.32V423.73H666.31V421.31H668.737V420.322Z" fill="white"/>
<path d="M563.414 384.26H562.307V383.154H561.858V384.26H560.751V384.709H561.858V385.814H562.307V384.709H563.414V384.26Z" fill="white"/>
<path d="M751.635 188.189H750.528V187.083H750.079V188.189H748.972V188.637H750.079V189.743H750.528V188.637H751.635V188.189Z" fill="white"/>
<path d="M684.26 347.93H683.153V346.825H682.704V347.93H681.597V348.379H682.704V349.485H683.153V348.379H684.26V347.93Z" fill="white"/>
<path d="M698.698 301.985H697.591V300.879H697.142V301.985H696.035V302.433H697.142V303.539H697.591V302.433H698.698V301.985Z" fill="white"/>
<g opacity="0.7">
<path opacity="0.7" d="M884.244 269.032C884.288 255.642 881.077 242.442 874.887 230.566C871.951 224.988 869.272 221.526 867.208 219.394C866.42 218.562 865.39 217.998 864.264 217.782C863.138 217.565 861.972 217.707 860.931 218.187C860.098 218.482 859.346 218.967 858.733 219.603C855.947 222.488 853.429 226.302 851.247 230.357C844.738 242.516 841.362 256.103 841.424 269.892V278.162H836.114V181.991C836.114 161.839 831.601 141.96 822.746 124.329C818.554 115.974 814.726 110.781 811.79 107.591C811.077 106.779 810.2 106.129 809.215 105.684C808.231 105.238 807.163 105.007 806.082 105.007C805.001 105.007 803.933 105.238 802.949 105.684C801.964 106.129 801.087 106.779 800.374 107.591C796.396 111.913 792.802 117.63 789.68 123.704C780.381 141.719 775.659 162.17 775.659 182.91V278.125H771.071V269.454C771.13 255.674 767.754 242.097 761.249 229.946C759.051 225.891 756.532 222.076 753.763 219.191C752.958 218.338 751.901 217.764 750.746 217.554C749.591 217.345 748.4 217.51 747.346 218.027L747.539 218.128C746.867 218.427 746.259 218.851 745.747 219.378C743.689 221.515 741.01 224.972 738.074 230.55C731.884 242.426 728.672 255.626 728.717 269.016V412.73H745.1L743.293 424.542V459.873H756.693V424.542L754.902 412.725H771.05V281.833H775.638V412.158H788.722L786.846 424.542V459.873H800.246V424.542L798.369 412.142H816.014L814.127 424.542V459.873H827.527V424.542L825.65 412.142H836.098V281.849H841.408V412.938H845.713V412.741H859.947L858.161 424.542V459.873H871.561V424.542L869.769 412.725H884.244V269.032Z" fill="url(#paint0_linear_801_2)"/>
</g>
<path d="M759.35 417.672H746.662L748.929 402.28H757.083L759.35 417.672Z" fill="#535461"/>
<g opacity="0.1">
<path opacity="0.1" d="M748.298 408.392H757.714L757.083 404.091H748.929L748.298 408.392Z" fill="black"/>
</g>
<path d="M800.577 417.672H787.894L790.155 402.28H798.315L800.577 417.672Z" fill="#535461"/>
<g opacity="0.1">
<path opacity="0.1" d="M789.524 408.392H798.946L798.315 404.091H790.155L789.524 408.392Z" fill="black"/>
</g>
<path d="M826.404 417.672H813.72L815.982 402.28H824.137L826.404 417.672Z" fill="#535461"/>
<g opacity="0.1">
<path opacity="0.1" d="M815.352 408.392H824.773L824.137 404.091H815.983L815.352 408.392Z" fill="black"/>
</g>
<path d="M849.964 275.08H759.351V278.702H849.964V275.08Z" fill="#535461"/>
<path d="M863.968 217.872C863.489 217.343 862.905 216.921 862.253 216.632C861.601 216.343 860.895 216.194 860.182 216.194C859.469 216.194 858.763 216.343 858.111 216.632C857.459 216.921 856.875 217.343 856.396 217.872C853.76 220.682 851.375 224.395 849.295 228.343C843.125 240.224 839.934 253.424 839.996 266.809V406.164H880.1V266.222C880.15 253.207 877.114 240.366 871.24 228.749C868.454 223.321 865.92 219.923 863.968 217.872Z" fill="#E0E0E0"/>
<path d="M748.966 217.872C749.445 217.343 750.029 216.921 750.681 216.632C751.333 216.343 752.039 216.194 752.752 216.194C753.465 216.194 754.171 216.343 754.823 216.632C755.475 216.921 756.059 217.343 756.538 217.872C759.179 220.682 761.559 224.395 763.644 228.343C769.812 240.225 773.003 253.425 772.943 266.809V406.164H732.839V266.222C732.789 253.207 735.825 240.366 741.699 228.749C744.48 223.321 747.015 219.923 748.966 217.872Z" fill="#E0E0E0"/>
<path d="M733.069 269.192L742.587 269.24V280.962H733.069V269.192Z" fill="#535461"/>
<path d="M763.425 269.192L772.943 269.24V280.962H763.425V269.192Z" fill="#535461"/>
<path d="M839.997 269.192L849.509 269.24V280.962H839.997V269.192Z" fill="#535461"/>
<g opacity="0.1">
<path opacity="0.1" d="M763.644 228.162C761.559 224.213 759.179 220.5 756.538 217.69C755.792 216.864 754.795 216.305 753.701 216.099C752.606 215.894 751.475 216.053 750.479 216.552C751.053 216.838 751.571 217.223 752.009 217.69C754.645 220.5 757.03 224.213 759.11 228.162C765.28 240.042 768.471 253.243 768.409 266.628V405.972H772.943V266.633C773.004 253.247 769.813 240.045 763.644 228.162V228.162Z" fill="black"/>
</g>
<g opacity="0.1">
<path opacity="0.1" d="M852.921 228.546C855.001 224.598 857.386 220.885 860.022 218.075C860.515 217.543 861.112 217.117 861.776 216.825C860.796 216.396 859.706 216.286 858.66 216.511C857.614 216.735 856.665 217.282 855.947 218.075C853.306 220.885 850.921 224.598 848.841 228.546C842.673 240.428 839.482 253.628 839.542 267.012V406.378H843.622V267.023C843.558 253.634 846.749 240.43 852.921 228.546V228.546Z" fill="black"/>
</g>
<path d="M753.18 452.078H752.832C751.196 452.078 749.626 451.428 748.469 450.272C747.312 449.116 746.662 447.548 746.662 445.913V417.672H759.35V445.913C759.35 447.548 758.7 449.116 757.543 450.272C756.386 451.428 754.816 452.078 753.18 452.078Z" fill="url(#paint1_linear_801_2)"/>
<path d="M794.412 452.078H794.059C792.423 452.076 790.855 451.426 789.699 450.27C788.543 449.114 787.894 447.547 787.894 445.913V417.672H800.577V445.913C800.577 447.547 799.928 449.114 798.772 450.27C797.616 451.426 796.047 452.076 794.412 452.078Z" fill="url(#paint2_linear_801_2)"/>
<path d="M820.233 452.078H819.875C818.241 452.074 816.676 451.422 815.522 450.266C814.368 449.111 813.72 447.545 813.72 445.913V417.672H826.404V445.913C826.404 447.548 825.754 449.116 824.597 450.272C823.439 451.428 821.87 452.078 820.233 452.078Z" fill="url(#paint3_linear_801_2)"/>
<path d="M811.501 108.606C810.839 107.819 810.012 107.185 809.078 106.751C808.145 106.317 807.128 106.091 806.098 106.091C805.068 106.091 804.051 106.317 803.118 106.751C802.184 107.185 801.357 107.819 800.695 108.606C796.952 112.816 793.53 118.378 790.535 124.297C781.734 141.842 777.263 161.759 777.263 181.954V405.598H834.478V181.056C834.478 161.433 830.2 142.056 821.837 124.906C817.907 116.77 814.287 111.71 811.501 108.606Z" fill="#EEEEEE"/>
<path d="M814.549 133.449H796.454C793.206 133.449 790.573 136.08 790.573 139.326V141.244C790.573 144.489 793.206 147.121 796.454 147.121H814.549C817.798 147.121 820.431 144.489 820.431 141.244V139.326C820.431 136.08 817.798 133.449 814.549 133.449Z" fill="#535461"/>
<g opacity="0.1">
<path opacity="0.1" d="M834.206 189.599H777.574V191.795H834.206V189.599Z" fill="black"/>
</g>
<path d="M695.912 370.3C694.876 368.932 693.578 367.784 692.094 366.923V366.923C690.39 365.924 688.478 365.332 686.508 365.193C684.537 365.053 682.561 365.37 680.733 366.118C678.905 366.867 677.275 368.027 675.969 369.508C674.663 370.989 673.718 372.752 673.205 374.658C672.693 376.564 672.628 378.563 673.016 380.498C673.404 382.434 674.233 384.254 675.44 385.816C676.647 387.379 678.199 388.642 679.975 389.507C681.75 390.372 683.702 390.816 685.677 390.804C685.95 390.804 686.212 390.804 686.49 390.778C688.794 390.623 691.013 389.849 692.914 388.54C694.815 387.23 696.327 385.432 697.291 383.335C698.254 381.238 698.634 378.921 698.389 376.626C698.145 374.332 697.285 372.147 695.901 370.3H695.912Z" fill="url(#paint4_linear_801_2)"/>
<path opacity="0.2" d="M697.794 378.009C697.793 381.084 696.62 384.044 694.513 386.286C692.407 388.528 689.524 389.883 686.452 390.078C686.201 390.078 685.918 390.078 685.688 390.078C683.831 390.077 681.999 389.65 680.334 388.829C678.669 388.009 677.216 386.816 676.086 385.344C674.955 383.873 674.179 382.161 673.817 380.341C673.455 378.522 673.517 376.644 673.997 374.852C674.478 373.06 675.364 371.403 676.588 370.008C677.812 368.613 679.341 367.518 681.056 366.808C682.771 366.098 684.627 365.792 686.48 365.912C688.333 366.033 690.133 366.578 691.741 367.506V367.506C693.145 368.322 694.371 369.412 695.345 370.711C696.939 372.81 697.799 375.374 697.794 378.009V378.009Z" fill="black"/>
<path opacity="0.1" d="M682.704 370.337C682.079 370.603 681.476 370.919 680.902 371.283C680.52 371.496 680.189 371.792 679.934 372.148C679.816 372.332 679.752 372.546 679.752 372.765C679.752 372.984 679.816 373.198 679.934 373.382C680.112 373.557 680.325 373.692 680.56 373.777C680.794 373.862 681.044 373.895 681.293 373.874C681.818 373.942 682.352 373.889 682.854 373.719C683.194 373.551 683.503 373.327 683.768 373.056L684.806 372.116C685.169 371.785 685.565 371.336 685.405 370.877C685.323 370.708 685.198 370.565 685.043 370.46C684.889 370.355 684.709 370.292 684.522 370.278C683.627 370.103 682.699 370.267 681.918 370.738" fill="black"/>
<g opacity="0.1">
<path opacity="0.1" d="M678.357 383.416C678.708 383.416 678.993 383.131 678.993 382.78C678.993 382.429 678.708 382.144 678.357 382.144C678.005 382.144 677.72 382.429 677.72 382.78C677.72 383.131 678.005 383.416 678.357 383.416Z" fill="black"/>
</g>
<g opacity="0.1">
<path opacity="0.1" d="M691.313 381.086C692.604 381.086 693.65 380.041 693.65 378.752C693.65 377.462 692.604 376.417 691.313 376.417C690.022 376.417 688.976 377.462 688.976 378.752C688.976 380.041 690.022 381.086 691.313 381.086Z" fill="black"/>
</g>
<g opacity="0.1">
<path opacity="0.1" d="M695.35 370.722C695.345 371.338 695.163 371.939 694.825 372.454C694.487 372.969 694.008 373.376 693.445 373.626C692.882 373.876 692.258 373.959 691.649 373.864C691.04 373.769 690.471 373.502 690.011 373.092C689.55 372.683 689.217 372.15 689.052 371.557C688.886 370.964 688.895 370.336 689.078 369.747C689.26 369.159 689.609 368.636 690.081 368.24C690.553 367.845 691.129 367.593 691.741 367.516C693.147 368.332 694.375 369.422 695.35 370.722V370.722Z" fill="black"/>
</g>
<g opacity="0.1">
<path opacity="0.1" d="M695.585 384.97C694.544 386.451 693.182 387.68 691.601 388.564C690.02 389.448 688.261 389.965 686.452 390.078C686.452 389.912 686.452 389.741 686.452 389.544C686.453 388.482 686.749 387.442 687.307 386.538C687.865 385.635 688.663 384.904 689.612 384.427C690.561 383.95 691.624 383.746 692.683 383.837C693.741 383.928 694.753 384.311 695.607 384.944L695.585 384.97Z" fill="black"/>
</g>
</g>
</g>
<defs>
<linearGradient id="paint0_linear_801_2" x1="87347.3" y1="251051" x2="87347.3" y2="15325.2" gradientUnits="userSpaceOnUse">
<stop stop-color="#808080" stop-opacity="0.25"/>
<stop offset="0.54" stop-color="#808080" stop-opacity="0.12"/>
<stop offset="1" stop-color="#808080" stop-opacity="0.1"/>
</linearGradient>
<linearGradient id="paint1_linear_801_2" x1="753.009" y1="417.672" x2="753.009" y2="452.078" gradientUnits="userSpaceOnUse">
<stop stop-color="#E0E0E0"/>
<stop offset="0.31" stop-color="#FCCC63"/>
<stop offset="0.77" stop-color="#F55F44"/>
</linearGradient>
<linearGradient id="paint2_linear_801_2" x1="7561.5" y1="22029.4" x2="7561.5" y2="24245.1" gradientUnits="userSpaceOnUse">
<stop stop-color="#E0E0E0"/>
<stop offset="0.31" stop-color="#FCCC63"/>
<stop offset="0.77" stop-color="#F55F44"/>
</linearGradient>
<linearGradient id="paint3_linear_801_2" x1="8199.96" y1="22029.4" x2="8199.96" y2="24245.1" gradientUnits="userSpaceOnUse">
<stop stop-color="#E0E0E0"/>
<stop offset="0.31" stop-color="#FCCC63"/>
<stop offset="0.77" stop-color="#F55F44"/>
</linearGradient>
<linearGradient id="paint4_linear_801_2" x1="9178.98" y1="15183.6" x2="9178.98" y2="13955" gradientUnits="userSpaceOnUse">
<stop stop-color="#808080" stop-opacity="0.25"/>
<stop offset="0.54" stop-color="#808080" stop-opacity="0.12"/>
<stop offset="1" stop-color="#808080" stop-opacity="0.1"/>
</linearGradient>
<clipPath id="clip0_801_2">
<rect width="850" height="450" rx="40" fill="white"/>
</clipPath>
<clipPath id="clip1_801_2">
<rect width="607" height="435" fill="white" transform="translate(526 105)"/>
</clipPath>
</defs>
</svg>
