<svg width="1366" height="80" viewBox="0 0 1366 80" fill="none" xmlns="http://www.w3.org/2000/svg">
<path fill-rule="evenodd" clip-rule="evenodd" d="M1366 0H0V16.6317C79.0078 30.0344 172.154 41.8856 261.729 51.4082C372.219 63.1543 481.981 65.5116 592.365 67.8823C635.235 68.803 678.2 69.7257 721.336 71.2012C749.929 72.1793 779.133 73.4238 808.302 74.6669C896.407 78.4217 984.192 82.1628 1053.85 78.503C1119.23 75.0676 1150.1 65.1085 1181.04 55.1302C1191.39 51.7896 1201.76 48.4468 1213.42 45.3459C1230.71 40.7513 1241.26 35.3783 1251.75 30.0318C1265.59 22.9813 1279.34 15.9767 1308.34 10.8632C1324.57 8.0017 1344.23 5.6147 1366 3.52888V0Z" fill="#DDDBF2" fill-opacity="0.26"/>
</svg>
